<svg xmlns="http://www.w3.org/2000/svg" viewBox="0 0 128 128"><path fill="#00A1E0" d="M74.937 30.063c-9.223 0-18.446 3.488-25.47 10.463-7.024-6.975-16.247-10.463-25.47-10.463C9.252 30.063 0 39.315 0 50.688c0 11.373 9.252 20.625 20.997 20.625h.002c1.84 0 3.68-.237 5.478-.707a30.372 30.372 0 0 0 2.847 14.582C33.635 89.545 43.648 97.937 55.22 97.937c7.12 0 13.828-3.2 18.38-8.77a26.42 26.42 0 0 0 4.15.333c13.72 0 24.836-11.116 24.836-24.836 0-4.237-1.063-8.24-2.936-11.76a20.647 20.647 0 0 0 2.518-9.533C102.168 36.368 91.052 30.063 79.34 30.063h-4.403zm-21.07 48.595c-2.04 0-4.045-.26-5.988-.763a26.34 26.34 0 0 1-2.537-12.89c.48-3.27 1.522-6.37 3.084-9.178C53.8 49.98 61.42 46.27 69.937 46.27c1.145 0 2.278.067 3.394.2 3.294 8.468 1.38 17.422-5.188 24.188-3.97 4.09-9.13 6.7-14.726 7.445a24.693 24.693 0 0 1-3.012.188h-.164z"/><path fill="#0070D2" d="M79.34 25.313c-9.544 0-19.088 3.64-26.557 10.92-7.468-7.28-17.013-10.92-26.557-10.92C8.848 25.313-.404 34.565-.404 45.938c0 11.373 9.252 20.625 20.997 20.625h.002c1.97 0 3.935-.26 5.858-.773a30.372 30.372 0 0 0 2.847 14.582c5.312 5.977 15.325 14.369 26.897 14.369 7.12 0 13.828-3.2 18.38-8.77a26.42 26.42 0 0 0 4.15.333c13.72 0 24.836-11.116 24.836-24.836 0-4.237-1.063-8.24-2.936-11.76a20.647 20.647 0 0 0 2.518-9.533C101.764 31.618 90.648 25.313 78.936 25.313h.404z" opacity=".25"/></svg>